{"title":"Sorority Wars (2009) DVDRip XviD-SKITTLES","uid":5775927,"size":737652283,"categoryP":"video","categoryS":"movies","magnet":"?xt=urn:btih:063293f3c1fce0cd000e9795411591f9bd08e302&amp;dn=Sorority+Wars+%282009%29+DVDRip+XviD-SKITTLES&amp;tr=udp%3A%2F%2Ftracker.openbittorrent.com%3A80&amp;tr=udp%3A%2F%2Fopen.demonii.com%3A1337&amp;tr=udp%3A%2F%2Ftracker.coppersurfer.tk%3A6969&amp;tr=udp%3A%2F%2Fexodus.desync.com%3A6969","seeders":17,"leechers":0,"uploader":"SkittlesRG","files":-1,"time":1282262844,"description":"[img]http://leetleech.org/images/75732821922268382950.jpg[/img]\n\n[b]Sorority Wars (2009) DVDRip XviD-SKITTLES[/b]\n\n[img]http://leetleech.org/images/39185456263711143641.png[/img]\n\nVideo\nID                               : 0\nFormat                           : MPEG-4 Visual\nFormat profile                   : Advanced Simple@L5\nFormat settings, BVOP            : Yes\nFormat settings, QPel            : No\nFormat settings, GMC             : No warppoints\nFormat settings, Matrix          : Default (H.263)\nMuxing mode                      : Packed bitstream\nCodec ID                         : XVID\nCodec ID/Hint                    : XviD\nDuration                         : 1h 28mn\nBit rate                         : 969 Kbps\nWidth                            : 624 pixels\nHeight                           : 336 pixels\nDisplay aspect ratio             : 1.857\nFrame rate                       : 23.976 fps\nColor space                      : YUV\nChroma subsampling               : 4:2:0\nBit depth                        : 8 bits\nScan type                        : Progressive\nBits/(Pixel*Frame)               : 0.193\nStream size                      : 616 MiB (88%)\nWriting library                  : XviD 1.2.1 (UTC 2008-12-04)\n\nAudio\nID                               : 1\nFormat                           : MPEG Audio\nFormat version                   : Version 1\nFormat profile                   : Layer 3\nMode                             : Joint stereo\nMode extension                   : MS Stereo\nCodec ID                         : 55\nCodec ID/Hint                    : MP3\nDuration                         : 1h 28mn\nBit rate mode                    : Constant\nBit rate                         : 128 Kbps\nChannel(s)                       : 2 channels\nSampling rate                    : 48.0 KHz\nStream size                      : 81.4 MiB (12%)\nAlignment                        : Split accross interleaves\nInterleave, duration             : 42 ms (1.00 video frame)\nInterleave, preload duration     : 500 ms\n &lt;a href=&quot;\nhttp://www.imdb.com/title/tt1411249/&quot; rel=&quot;nofollow&quot; target=&quot;_NEW&quot;&gt;\nhttp://www.imdb.com/title/tt1411249/&lt;/a&gt;\n\n[img]http://leetleech.org/images/46941880339015444838.png[/img]\n\nLucy Hale\t... \tKatie Parker\nCourtney Thorne-Smith\t... \tLutie\nAmanda Schull\t... \tGwen\nPhoebe Strole\t... \tSara Snow\nKristen Hager\t... \tHeather\nRob Mayes\t... \tBeau\nAdrian Hough\t... \tWilliam\nSarah-Jane Redmond\t\t\nChelan Simmons\t... \tCasadee\nFaith Ford\t... \tSummer\n\n[img]http://leetleech.org/images/70187465700988366433.png[/img]\n\nGenre:\nComedy | Drama\n\nPlot: \nKatie (Lucy Hale) and Sara (Phoebe Strole) have been friends since \nchildhood. They enter college together, where Katie is a prized legacy \ncandidate for the Delta sorority, which was co-founded decades ago by \nher mother, Lutie (Courtney Thorne-Smith) and Summer (Faith Ford), whose\nown daughter Gwen (Amanda Schull) now leads the Deltas on campus. \nEvents occur during pledge week to cause a rift between Katie and \nthe Deltas, which leaves Sara as a Delta pledge and Katie out in the\ncold. Katie joins the rival Kappa sorority, and the rivalry splits \nnot just Katie and Sara, but extends all the way into the Delta alumnae\nassociation led by Lutie and Summer.  \n\n[img]http://leetleech.org/images/64476088802225496360.png[/img]\n\n[img]http://leetleech.org/images/21579609307654336653.png[/img]\n[img]http://leetleech.org/images/77687653198455714648.png[/img]\n[img]http://leetleech.org/images/26436072437679274243.png[/img]\n[img]http://leetleech.org/images/55205671386412435857.png[/img]\n[img]http://leetleech.org/images/41517472847894146356.png[/img]\n[img]http://leetleech.org/images/66608551660020171358.png[/img]","torrent":{"xt":"urn:btih:063293f3c1fce0cd000e9795411591f9bd08e302","amp;dn":"Sorority+Wars+%282009%29+DVDRip+XviD-SKITTLES","amp;tr":["udp%3A%2F%2Ftracker.openbittorrent.com%3A80","udp%3A%2F%2Fopen.demonii.com%3A1337","udp%3A%2F%2Ftracker.coppersurfer.tk%3A6969","udp%3A%2F%2Fexodus.desync.com%3A6969"],"infoHash":"063293f3c1fce0cd000e9795411591f9bd08e302","infoHashBuffer":{"type":"Buffer","data":[6,50,147,243,193,252,224,205,0,14,151,149,65,21,145,249,189,8,227,2]},"announce":[],"urlList":[]}}